#N canvas 546 166 1370 714 10;
#X obj 304 186 r notesIn-\$1;
#X obj 304 491 s notesOut-\$1;
#X obj 27 186 inlet~ inL-\$1;
#X obj 136 186 inlet~ inR-\$1;
#X obj 27 491 outlet~ outL-\$1;
#X obj 136 491 outlet~ outR-\$1;
#X obj 424 185 r auxIn-\$1;
#X obj 423 208 r expIn-\$1;
#N canvas 4 399 1912 998 synth 1;
#X obj 155 445 outlet~;
#X obj 269 99 inlet ctrl;
#X obj 155 59 inlet notes;
#N canvas 850 470 705 487 route 0;
#X obj 27 43 t l l;
#X obj 27 80 unpack 0 0 0;
#X obj 96 118 route 1 0;
#X obj 96 149 t b;
#X obj 96 199 list;
#X obj 96 220 outlet global;
#X obj 147 149 - 1;
#X obj 229 198 pack 0 0 0;
#X obj 229 219 outlet voice;
#X obj 226 151 unpack 0 0 0;
#X obj 27 -4 inlet msg;
#X text 249 254 outlet for a single voice;
#X text 95 254 outlet for all voices;
#X connect 0 0 1 0;
#X connect 0 1 4 1;
#X connect 0 1 9 0;
#X connect 1 2 2 0;
#X connect 2 0 3 0;
#X connect 2 1 3 0;
#X connect 2 2 6 0;
#X connect 3 0 4 0;
#X connect 4 0 5 0;
#X connect 6 0 7 0;
#X connect 7 0 8 0;
#X connect 9 0 7 1;
#X connect 9 1 7 2;
#X connect 10 0 0 0;
#X restore 155 120 pd route;
#X obj 155 141 poly 4 1;
#X obj 155 184 pack f f f;
#X obj 155 205 route 1 2 3 4;
#X obj 308 443 s~ modbus_out-\$1;
#X obj 155 381 pb \$1 1;
#X obj 249 382 pb \$1 2;
#X obj 351 381 pb \$1 3;
#X obj 460 380 pb \$1 4;
#X connect 2 0 3 0;
#X connect 3 0 4 0;
#X connect 3 1 6 0;
#X connect 4 0 5 0;
#X connect 4 1 5 1;
#X connect 4 2 5 2;
#X connect 5 0 6 0;
#X connect 6 0 8 0;
#X connect 6 1 9 0;
#X connect 6 2 10 0;
#X connect 6 3 11 0;
#X connect 8 0 0 0;
#X connect 8 0 7 0;
#X connect 9 0 0 0;
#X connect 9 0 7 0;
#X connect 10 0 0 0;
#X connect 10 0 7 0;
#X connect 11 0 0 0;
#X connect 11 0 7 0;
#X restore 58 337 pd synth;
#X obj 938 105 sig~;
#X obj 937 134 lop~ 5;
#X obj 938 82 * 2;
#X obj 936 160 send~ as-\$1-offset;
#X obj 939 18 r as_oscratio-\$1;
#X obj 938 52 / 100;
#X obj 421 252 r ctrlIn-\$1;
#X obj 417 494 s ctrlOut-\$1;
#X obj 627 26 r pb_ramp_down-\$1;
#X obj 625 363 r pb_mod_amount-\$1;
#X obj 627 79 send ramp_down-\$1;
#X obj 803 362 r pb_filter_q-\$1;
#X obj 803 487 s filter_q-\$1;
#X obj 625 503 s mod_amount-\$1;
#X obj 625 391 / 50;
#X connect 0 0 8 0;
#X connect 8 0 5 0;
#X connect 8 0 4 0;
#X connect 9 0 10 0;
#X connect 10 0 12 0;
#X connect 11 0 9 0;
#X connect 13 0 14 0;
#X connect 14 0 11 0;
#X connect 15 0 8 1;
#X connect 17 0 19 0;
#X connect 18 0 23 0;
#X connect 20 0 21 0;
#X connect 23 0 22 0;
