#N canvas 36 237 1370 714 10;
#X obj 158 131 inlet notes;
#X obj 143 325 *~;
#X obj 192 235 route 0;
#X obj 246 289 r ramp_down-\$1;
#X obj 230 401 vline~ 1;
#X obj 231 260 / 100;
#X obj 231 319 *;
#X text 196 156 frequency \, velocity \, nothing;
#X obj 158 188 unpack f f f;
#X obj 220 525 outlet~;
#X text 244 234 velocity != 0;
#X text 284 259 scale 100 down to 1;
#X text 310 364 ramp up to 1 \, decrease in <ramp_down> ms;
#X text 68 320 input freq;
#X obj 43 245 r mod_amount-\$1;
#X obj 28 287 *~;
#X obj 328 407 r filter_q-\$1;
#X text 42 32 parameters:;
#X text 55 48 1: module id;
#X text 56 67 2: voice number;
#X obj 73 161 r~ modbus_out-\$1;
#X obj 181 277 mtof~;
#X floatatom 378 461 5 0 0 0 - - -;
#X floatatom 115 432 5 0 0 0 - - -;
#X obj 229 447 vcf~ 220 1, f 17;
#X msg 230 365 100 0 \, 0 \$1;
#X floatatom 35 349 5 0 0 0 - - -;
#X obj 82 292 +~ 1;
#X obj 252 494 hip~ 30;
#X obj 34 202 clip~ -10 10;
#X connect 0 0 8 0;
#X connect 1 0 24 1;
#X connect 2 1 5 0;
#X connect 3 0 6 1;
#X connect 4 0 24 0;
#X connect 5 0 6 0;
#X connect 6 0 25 0;
#X connect 8 0 21 0;
#X connect 8 0 23 0;
#X connect 8 1 2 0;
#X connect 14 0 15 1;
#X connect 14 0 26 0;
#X connect 15 0 27 0;
#X connect 16 0 22 0;
#X connect 16 0 24 2;
#X connect 20 0 29 0;
#X connect 21 0 1 1;
#X connect 24 0 28 0;
#X connect 25 0 4 0;
#X connect 27 0 1 0;
#X connect 28 0 9 0;
#X connect 29 0 15 0;
